<svg width="19" height="14" viewBox="0 0 19 14" fill="none" xmlns="http://www.w3.org/2000/svg">
<path d="M12.0035 2.25948C12.4169 3.01027 13.021 3.64151 13.7859 4.40637L13.7881 4.40745C14.0408 4.66171 14.3022 4.90427 14.5729 5.12345L14.8621 5.34719C15.1499 5.56 15.4358 5.74155 15.733 5.89074L15.7483 5.89838C15.7728 5.91163 15.7951 5.92253 15.8138 5.93003L15.8411 5.94204C16.5863 6.28795 17.3594 6.39796 18.2717 6.42883L18.5774 6.43865L18.7913 6.4321V6.44629L18.8306 6.44848L18.811 6.99748L18.8317 7.54865L18.7924 7.54975V7.56503L18.5861 7.55738L18.2729 7.5694C17.3588 7.60193 16.5873 7.70903 15.8433 8.05727L15.8138 8.07037C15.795 8.07787 15.7729 8.08872 15.7483 8.10202L15.7298 8.11185C15.3365 8.30625 14.9628 8.56216 14.5739 8.87586C14.3019 9.09609 14.0389 9.3378 13.7859 9.59076C13.0208 10.3576 12.4169 10.9879 12.0035 11.7387L11.7339 12.2277L10.7549 11.6896L11.0245 11.1996C11.4001 10.5175 11.897 9.93381 12.4402 9.36593L12.9957 8.80055C13.2702 8.52612 13.562 8.25609 13.871 8.00597C14.0649 7.84958 14.2635 7.70127 14.4669 7.56285H0.558594V6.4452H14.4801C14.3848 6.38067 14.2903 6.31419 14.1974 6.24547L13.8732 5.99552L13.871 5.99443C13.5615 5.7439 13.2696 5.47223 12.9957 5.19658L12.4402 4.6323C11.897 4.06507 11.4001 3.48068 11.0245 2.79865L10.7549 2.30969L11.7339 1.77051L12.0035 2.25948Z" fill="#0A1330"/>
</svg>
