<svg width="99" height="77" viewBox="0 0 99 77" fill="none" xmlns="http://www.w3.org/2000/svg">
<path d="M49.4269 33.2505C54.2328 33.0465 57.3068 36.6954 56.0823 41.4043C64.5715 49.9727 65.1964 63.5704 80.0745 62.814C80.8072 62.7768 81.6928 62.8132 82.4412 62.8116L90.5091 62.7821L85.2957 57.3497C86.0422 56.3433 87.5116 54.9334 88.501 54.163C89.7137 55.1593 99.588 64.5467 98.9199 65.468C96.5101 68.7942 91.667 73.432 88.5421 76.2351C87.2569 75.1548 86.4458 74.3667 85.2742 73.1582C85.8149 72.3863 86.7593 71.4675 87.4313 70.7679L90.4601 67.6933C86.7318 67.4852 82.3374 67.7331 78.5385 67.6008C69.346 67.281 64.015 62.8026 59.7244 54.9322C57.7966 51.3985 55.8472 47.5034 52.8007 44.8014C49.0645 46.0095 46.4882 44.9752 44.5505 41.6282L20.2617 41.6331L20.2729 36.9008L44.5682 36.8935C44.7249 36.5851 44.8953 36.2823 45.0736 35.9862C46.1002 34.3321 47.6167 33.6684 49.4269 33.2505Z" fill="#31EE97"/>
<path d="M81.6099 0.0939774C86.9369 -0.0761138 92.7733 0.0359696 98.1395 0.0393009C98.0709 5.36915 98.263 10.9635 98.0788 16.2607C97.0757 16.4329 93.6882 16.371 92.4853 16.3692L81.6275 16.343C81.5178 11.048 81.6118 5.41638 81.6099 0.0939774Z" fill="#31EE97"/>
<path d="M6.43739 31.3291C10.7915 30.4631 15.0172 33.3108 15.8499 37.6722C16.6826 42.0336 13.8031 46.2385 9.4365 47.0382C5.1163 47.8293 0.967133 44.9869 0.143295 40.6721C-0.680346 36.3573 2.12972 32.1858 6.43739 31.3291Z" fill="#31EE97"/>
<path d="M76.3827 7.20868C77.0331 7.14872 76.8039 7.08229 77.2858 7.39445C77.615 8.43851 77.6385 10.5905 77.7208 11.8015C76.5355 11.9693 71.8295 13.4078 71.6532 13.3949C70.9028 12.1715 70.1857 10.8063 69.4922 9.53901C71.9725 8.20003 73.632 7.64371 76.3827 7.20868Z" fill="#666D7A"/>
<path d="M64.974 13.3311C65.6891 13.7191 67.5797 15.7378 68.2615 16.4276C66.4237 18.8089 66.267 19.9674 65.0562 21.7441L64.7173 21.7382C63.4399 21.3318 62.0332 20.7755 60.7637 20.3026C61.9549 17.2473 62.8913 15.8591 64.974 13.3311Z" fill="#666D7A"/>
<path d="M58.9562 25.0957L63.38 26.6702C62.4945 29.2247 61.5286 30.8786 60.0376 33.0955L59.7066 33.4466C58.8759 33.3794 56.7697 31.3526 56.0742 30.7356C57.6416 28.5056 58.0001 27.6747 58.9562 25.0957Z" fill="#666D7A"/>
</svg>
