<svg width="146" height="40" viewBox="0 0 146 40" fill="none" xmlns="http://www.w3.org/2000/svg">
<g clip-path="url(#clip0_312_1774)">
<path d="M11.4711 15.6565V34.5823L0 39.1132V11.1256L11.4711 15.6565Z" fill="#4073FF"/>
<path d="M18.3454 11.0523V27.3657L14.3423 25.785V13.7308L4.44922 9.82261V5.56351L18.3454 11.0523Z" fill="#4073FF"/>
<path d="M25.2034 6.44405V22.7574L21.2029 21.1768V9.12248L8.88477 4.25644V-3.05176e-05L25.2034 6.44405Z" fill="#4073FF"/>
<path d="M50.0647 9.67143C49.3918 8.57895 48.4418 7.72132 47.2201 7.09855C45.9956 6.47578 44.5706 6.1644 42.9478 6.1644H33.6484V27.2303H37.2294V11.194L35.5722 9.53685H42.8871C44.3331 9.53685 45.4467 9.88254 46.2278 10.5739C47.0116 11.2679 47.3995 12.1757 47.3995 13.2972C47.3995 14.4187 47.0089 15.3608 46.2278 16.0522C45.4467 16.7462 44.3305 17.0919 42.8871 17.0919H37.2294L40.5992 20.4617H42.9478C44.5706 20.4617 45.9956 20.1477 47.2201 19.5143C48.4445 18.881 49.3918 18.0234 50.0647 16.9415C50.735 15.8569 51.0728 14.6457 51.0728 13.2999C51.0728 11.954 50.735 10.7666 50.0647 9.67407V9.67143Z" fill="white"/>
<path d="M65.5405 14.4558C65.018 13.5639 64.2606 12.8778 63.2684 12.3948C62.2736 11.9119 61.0861 11.6744 59.7007 11.6744C57.7559 11.6744 56.2042 12.16 55.0537 13.1337C53.9005 14.1075 53.1511 15.2949 52.8106 16.7015H56.1831C56.4021 16.0787 56.8164 15.5562 57.4181 15.1366C58.0197 14.7144 58.7824 14.5033 59.7033 14.5033C60.7668 14.5033 61.5901 14.7777 62.1706 15.3292C62.7512 15.8808 63.0441 16.6381 63.0441 17.6013V18.1423H58.2889C57.0249 18.1423 55.9324 18.3534 55.0088 18.7756C54.0852 19.1978 53.3886 19.7731 52.9162 20.5067C52.4438 21.2376 52.209 22.0451 52.209 22.9265C52.209 23.8079 52.4201 24.6338 52.8423 25.3358C53.2645 26.0377 53.8847 26.5892 54.708 26.9903C55.5313 27.3941 56.505 27.592 57.6265 27.592C58.8694 27.592 59.9567 27.3413 60.8776 26.8399C61.8012 26.3412 62.4926 25.7184 62.9517 24.9743H63.0441V27.2331H66.3242V17.6039C66.3242 16.398 66.063 15.353 65.5431 14.4584L65.5405 14.4558ZM62.8805 21.7628C62.7908 22.0953 62.6562 22.4067 62.4873 22.6996C62.1152 23.3329 61.5848 23.8343 60.8908 24.2063C60.1968 24.5784 59.3999 24.7631 58.4974 24.7631C57.5342 24.7631 56.8059 24.5731 56.315 24.1905C55.8242 23.8105 55.5788 23.3091 55.5788 22.6864C55.5788 22.0636 55.8295 21.549 56.3309 21.1347C56.8296 20.7231 57.5447 20.5199 58.4657 20.5199H64.1208L62.8779 21.7628H62.8805Z" fill="white"/>
<path d="M92.1616 14.4558C91.6391 13.5639 90.8817 12.8778 89.8895 12.3948C88.8947 11.9119 87.7072 11.6744 86.3218 11.6744C84.3769 11.6744 82.8253 12.16 81.6748 13.1337C80.5216 14.1075 79.7721 15.2949 79.4317 16.7015H82.8042C83.0232 16.0787 83.4375 15.5562 84.0392 15.1366C84.6408 14.7144 85.4035 14.5033 86.3244 14.5033C87.3879 14.5033 88.2112 14.7777 88.7917 15.3292C89.3723 15.8808 89.6652 16.6381 89.6652 17.6013V18.1423H84.91C83.646 18.1423 82.5535 18.3534 81.6299 18.7756C80.7063 19.1978 80.0096 19.7731 79.5373 20.5067C79.0649 21.2376 78.8301 22.0451 78.8301 22.9265C78.8301 23.8079 79.0412 24.6338 79.4634 25.3358C79.8856 26.0377 80.5057 26.5892 81.3291 26.9903C82.1524 27.3941 83.1261 27.592 84.2476 27.592C85.4905 27.592 86.5777 27.3413 87.4987 26.8399C88.4223 26.3412 89.1137 25.7184 89.5728 24.9743H89.6652V27.2331H92.9453V17.6039C92.9453 16.398 92.684 15.353 92.1642 14.4584L92.1616 14.4558ZM89.5016 21.7628C89.4119 22.0953 89.2773 22.4067 89.1084 22.6996C88.7363 23.3329 88.2059 23.8343 87.5119 24.2063C86.8179 24.5784 86.0209 24.7631 85.1185 24.7631C84.1553 24.7631 83.427 24.5731 82.9361 24.1905C82.4453 23.8105 82.1999 23.3091 82.1999 22.6864C82.1999 22.0636 82.4506 21.549 82.952 21.1347C83.4507 20.7231 84.1658 20.5199 85.0868 20.5199H90.7419L89.499 21.7628H89.5016Z" fill="white"/>
<path d="M107.542 12.0333V14.2315H107.449C107.309 13.9914 107.019 13.6615 106.579 13.2393C106.138 12.8171 105.56 12.4503 104.85 12.1389C104.138 11.8275 103.309 11.6744 102.367 11.6744C101.063 11.6744 99.8653 12.0096 98.7728 12.6825C97.6777 13.3554 96.8121 14.2922 96.1683 15.4955C95.527 16.7015 95.2051 18.0552 95.2051 19.5593C95.2051 21.0635 95.527 22.4436 96.1683 23.6364C96.8095 24.8318 97.675 25.7685 98.7728 26.452C99.8653 27.1355 101.063 27.4732 102.367 27.4732C103.309 27.4732 104.138 27.3123 104.85 26.9903C105.563 26.671 106.138 26.299 106.579 25.8794C107.019 25.4572 107.309 25.1247 107.449 24.8845H107.542V28.3731L109.199 30.0303H97.4006V32.9489H110.851V12.0333H107.542ZM106.953 22.1612C106.563 22.9133 106.024 23.4939 105.344 23.9082C104.66 24.3198 103.908 24.523 103.085 24.523C102.261 24.523 101.475 24.3172 100.784 23.9082C100.09 23.4965 99.5486 22.9133 99.1581 22.1612C98.7675 21.4092 98.5696 20.541 98.5696 19.5567C98.5696 18.5724 98.7675 17.7069 99.1581 16.9521C99.5513 16.2001 100.092 15.6195 100.784 15.2079C101.475 14.7962 102.243 14.5904 103.085 14.5904C103.926 14.5904 104.66 14.7962 105.344 15.2079C106.024 15.6195 106.563 16.2001 106.953 16.9521C107.344 17.7069 107.542 18.575 107.542 19.5567C107.542 20.5383 107.344 21.4092 106.953 22.1612Z" fill="white"/>
<path d="M78.4329 11.6715V14.59H71.0731L72.7329 16.2499V27.2301H69.4238V11.6715H78.4329Z" fill="white"/>
<path d="M128.29 15.5849C127.588 14.3605 126.62 13.4026 125.385 12.7112C124.152 12.0172 122.762 11.6715 121.215 11.6715C119.669 11.6715 118.31 12.0172 117.077 12.7112C115.842 13.4026 114.877 14.3605 114.172 15.5849C113.47 16.8093 113.119 18.1631 113.119 19.6487C113.119 21.1344 113.47 22.4829 114.172 23.6941C114.874 24.908 115.842 25.8606 117.077 26.5546C118.31 27.246 119.69 27.5917 121.215 27.5917C122.74 27.5917 124.15 27.246 125.385 26.5546C126.62 25.8606 127.585 24.908 128.29 23.6941C128.992 22.4802 129.343 21.1318 129.343 19.6487C129.343 18.1657 128.992 16.8093 128.29 15.5849ZM125.355 22.2665C124.944 23.0291 124.379 23.6202 123.653 24.0398C122.933 24.462 122.12 24.6731 121.218 24.6731C120.315 24.6731 119.534 24.4646 118.811 24.0398C118.088 23.6202 117.521 23.0265 117.109 22.2665C116.697 21.5038 116.494 20.6304 116.494 19.6487C116.494 18.6671 116.7 17.7619 117.109 16.9993C117.521 16.2367 118.085 15.643 118.811 15.2234C119.532 14.8038 120.336 14.59 121.218 14.59C122.099 14.59 122.933 14.8012 123.653 15.2234C124.376 15.643 124.944 16.2367 125.355 16.9993C125.767 17.7619 125.973 18.6433 125.973 19.6487C125.973 20.6541 125.765 21.5038 125.355 22.2665Z" fill="white"/>
<path d="M144.39 13.3709C143.316 12.2388 141.849 11.6715 139.981 11.6715C138.817 11.6715 137.809 11.9169 136.957 12.4104C136.104 12.9012 135.458 13.5081 135.014 14.2285H134.925V11.6715L131.645 13.9435V27.2301H134.925V19.1051C134.925 18.2237 135.109 17.4347 135.481 16.7434C135.851 16.0493 136.347 15.5189 136.97 15.1468C137.593 14.7748 138.294 14.59 139.078 14.59C140.202 14.59 141.084 14.9173 141.728 15.5664C142.369 16.2182 142.691 17.1972 142.691 18.5008V27.2275H146V18.1393C146 16.0916 145.464 14.503 144.39 13.3683V13.3709Z" fill="white"/>
</g>
<defs>
<clipPath id="clip0_312_1774">
<rect width="145.999" height="39.1131" fill="white"/>
</clipPath>
</defs>
</svg>
