<svg width="102" height="89" viewBox="0 0 102 89" fill="none" xmlns="http://www.w3.org/2000/svg">
<path d="M40.0521 8.13596L40.231 8.13C42.59 8.05648 61.5231 7.73008 62.1946 8.51104C62.641 9.02874 62.7372 10.2029 62.7949 10.8759C63.0412 13.733 62.8584 16.7564 62.8603 19.6322C62.8642 23.1408 63.0277 26.7433 62.8218 30.2418C62.7699 31.1306 62.4755 31.427 61.8309 31.9951C55.2428 32.2947 48.2737 31.7965 41.6548 32.0107C40.9352 32.0339 39.8693 31.9431 39.4248 31.3003C38.7456 30.3182 39.0881 28.5658 38.9957 27.419C39.0111 21.6091 38.9438 15.8005 39.0265 9.99215C39.04 8.98698 39.3401 8.78395 40.0521 8.13596Z" fill="#31EE97"/>
<path d="M48.6346 36.5711L53.2005 36.5642L53.2255 47.9594L72.9417 47.9477C75.7124 47.9413 83.7859 47.5514 85.7428 48.6811C86.4835 49.7758 86.1564 59.009 86.1449 60.9564C84.698 60.8958 83.0047 60.9348 81.5405 60.9331L81.5597 52.62C72.199 52.504 62.5939 52.6152 53.214 52.6148L53.2005 60.9358L48.6346 60.9279L48.6365 52.6392C39.701 52.4187 29.334 52.5301 20.3581 52.6727L20.3465 60.9164C18.8457 60.9058 17.268 60.9512 15.7595 60.9699C15.7537 58.6431 15.4343 50.4484 16.1328 48.7779C17.6278 47.5239 25.886 47.9608 28.2777 47.96L48.6308 47.9475L48.6346 36.5711Z" fill="#666D7A"/>
<path d="M17.3297 65.1567C21.6858 64.7372 25.559 67.9223 25.992 72.2776C26.4229 76.6332 23.2482 80.5161 18.894 80.9591C14.5243 81.4036 10.6242 78.2142 10.1913 73.8422C9.76027 69.4703 12.9581 65.5778 17.3297 65.1567Z" fill="#31EE97"/>
<path d="M83.3244 65.1613C87.6921 64.8278 91.4998 68.1022 91.8269 72.4704C92.1521 76.8387 88.8715 80.6428 84.5038 80.9619C80.1477 81.2806 76.3534 78.0091 76.0282 73.6509C75.703 69.2927 78.9682 65.4941 83.3244 65.1613Z" fill="#31EE97"/>
<path d="M50.2051 65.1962C54.569 64.7797 58.4384 67.9971 58.8251 72.3646C59.2118 76.7321 55.9678 80.5792 51.6001 80.9364C47.2728 81.2899 43.4708 78.0841 43.0879 73.7583C42.705 69.4326 45.8836 65.6086 50.2051 65.1962Z" fill="#31EE97"/>
</svg>
