<svg width="102" height="94" viewBox="0 0 102 94" fill="none" xmlns="http://www.w3.org/2000/svg">
<path d="M51.6815 50.32C57.9156 49.4218 63.678 53.833 64.511 60.1409C65.3442 66.4489 60.9282 72.2331 54.6793 73.0189C48.5089 73.7948 42.8727 69.3996 42.0501 63.1708C41.2275 56.942 45.5258 51.2068 51.6815 50.32Z" fill="#31EE97"/>
<path d="M86.0839 22.6008C88.0266 22.5844 97.46 22.2241 98.4426 22.9893C98.9116 24.3176 99.2604 36.5263 98.5451 36.7342C92.9456 38.3614 93.853 35.4874 93.9219 31.5117C91.3565 33.9584 88.824 36.4402 86.3254 38.9567C84.6863 40.6266 83.0174 42.2666 81.3193 43.8753C80.1912 42.7298 79.0746 41.5474 77.9609 40.3857C82.1454 36.1509 86.3545 31.9411 90.5879 27.7565C89.0234 27.7575 87.459 27.7271 85.8957 27.6655C85.8563 26.3261 85.7067 23.7925 86.0839 22.6008Z" fill="#31EE97"/>
<path d="M7.17816 53.3751C11.5612 52.9326 15.4682 56.1675 15.9014 60.5976C16.3346 65.0277 13.1296 68.9727 8.74576 69.4058C4.36838 69.8382 0.471738 66.6052 0.0391839 62.1816C-0.393167 57.7583 2.8018 53.817 7.17816 53.3751Z" fill="#31EE97"/>
<path d="M52.8559 5.97001C57.2483 5.74733 60.9885 9.16383 61.2121 13.6027C61.4354 18.0419 58.0579 21.8245 53.6657 22.0537C49.2688 22.2832 45.5212 18.8652 45.2976 14.4214C45.0738 9.97754 48.4586 6.1927 52.8559 5.97001Z" fill="#31EE97"/>
<path d="M51.9176 26.8653L55.7311 26.8287C55.7352 28.7246 55.7586 30.599 55.7854 32.4935C55.8196 34.9144 56.5725 37.6091 55.6801 39.8863C55.2022 40.2573 54.3794 40.1272 53.7403 40.0991C52.4807 40.0853 51.4794 40.1726 50.2283 40.2792C50.1311 39.3829 49.4575 36.7444 49.8589 35.828C49.8701 35.8027 50.8415 35.7701 50.8826 35.3666C51.0255 33.9703 50.4415 27.7971 51.1287 26.9251L51.9176 26.8653Z" fill="white" fill-opacity="0.4"/>
<path d="M28.3034 58.7171C28.6969 58.5313 31.5648 59.0063 32.3088 59.0842C32.1388 61.1758 32.202 62.5633 32.46 64.624C31.3812 64.8614 29.8425 65.2752 28.7568 65.1969C27.8495 65.1314 28.197 64.6994 27.6472 64.0062L26.7854 63.9399L20.5273 63.9469L20.5609 59.0429C22.2832 59.0264 27.0091 59.3163 28.3034 58.7171Z" fill="white" fill-opacity="0.4"/>
<path d="M74.6485 43.7378C75.1125 44.0293 77.5613 46.569 78.1071 47.1202L75.8829 49.3343L76.9972 51.7606L74.4979 52.8488L73.4525 53.288C72.3532 52.8815 71.109 50.073 70.2656 48.7205C70.9695 48.1194 72.2906 46.9967 72.778 46.2383C73.6474 44.8859 73.4689 44.9038 74.6485 43.7378Z" fill="white" fill-opacity="0.4"/>
<path d="M55.6295 83.3515C56.3404 83.3093 56.1845 83.2058 56.6331 83.5431C57.0128 84.6229 57.0853 86.5558 57.25 87.8537C55.7334 87.997 54.4496 88.0199 52.9242 88.0402C50.7544 88.0455 50.4665 87.8052 50.8554 85.5165C50.9599 84.9014 51.0213 84.0199 51.0893 83.3743C52.6572 83.4281 54.0599 83.3967 55.6295 83.3515Z" fill="white" fill-opacity="0.4"/>
<path d="M40.7608 79.1719C42.5953 80.3077 43.7636 80.9692 45.6975 81.9369C45.2906 82.9781 44.5389 85.0375 43.9381 85.8629L43.5455 85.8724C41.5324 84.9952 39.8595 83.9175 38.0801 82.6442C38.9793 81.4914 39.8729 80.3338 40.7608 79.1719Z" fill="white" fill-opacity="0.4"/>
<path d="M66.7654 79.1001C67.3526 79.2963 69.0627 81.8785 69.5258 82.538C67.9419 83.7473 66.1879 84.7936 64.4362 85.7299L64.0321 85.8376C63.3428 85.5031 62.4112 82.6885 62.0801 81.828C63.8367 81.096 65.2092 80.18 66.7654 79.1001Z" fill="white" fill-opacity="0.4"/>
<path d="M62.9992 37.6786C64.867 38.2433 67.2637 39.8993 68.8055 41.0713L66.5574 44.0851L66.3242 44.338C65.851 44.3629 62.2719 42.2482 61.4336 41.8108C61.9113 40.4521 62.4823 39.0305 62.9992 37.6786Z" fill="white" fill-opacity="0.4"/>
<path d="M78.311 58.4775L78.7567 58.4602C79.558 59.4703 79.2214 63.7348 79.1488 65.037C78.1193 64.9834 76.9133 64.8215 75.875 64.7098L75.2059 64.6486C74.5664 63.9924 74.7198 60.4775 74.627 59.0868C75.6829 58.8343 77.1997 58.6447 78.311 58.4775Z" fill="white" fill-opacity="0.4"/>
<path d="M73.4247 70.1229C74.622 70.519 76.3126 71.2682 77.519 71.7604C76.6071 73.8786 75.6237 75.4947 74.3734 77.4128L74.0878 77.4625C72.9048 76.7659 71.8116 75.824 70.7363 74.9573C71.8045 73.2183 72.5159 71.9494 73.4247 70.1229Z" fill="white" fill-opacity="0.4"/>
<path d="M33.742 70.277C34.4821 70.5765 36.1961 74.1319 36.7734 74.9815L33.3796 77.7764C32.1722 76.3612 30.7831 73.6996 29.998 72.0174L33.742 70.277Z" fill="white" fill-opacity="0.4"/>
<path d="M42.9255 37.8445C43.429 38.2046 44.4313 41.1141 44.7258 41.891C43.6184 42.4488 40.4121 44.5025 39.8458 44.5294L37.3789 41.2441C39.1366 39.8552 40.9436 38.8542 42.9255 37.8445Z" fill="white" fill-opacity="0.4"/>
<path d="M32.7 46.1954L36.1718 48.7444C35.4841 49.8375 33.9743 53.041 33.4765 53.6394L29.5117 52.0356C30.4437 49.734 31.3222 48.2473 32.7 46.1954Z" fill="white" fill-opacity="0.4"/>
</svg>
