<svg width="82" height="73" viewBox="0 0 82 73" fill="none" xmlns="http://www.w3.org/2000/svg">
<path d="M29.8997 0.136207L30.0787 0.13024C32.4376 0.0567235 51.3707 -0.269677 52.0422 0.511289C52.4886 1.02898 52.5848 2.20313 52.6425 2.87613C52.8888 5.73326 52.706 8.75666 52.708 11.6325C52.7118 15.141 52.8754 18.7435 52.6695 22.2421C52.6175 23.1308 52.3231 23.4272 51.6786 23.9953C45.0905 24.295 38.1214 23.7967 31.5025 24.0109C30.7829 24.0342 29.7169 23.9434 29.2725 23.3006C28.5933 22.3185 28.9357 20.566 28.8434 19.4192C28.8588 13.6093 28.7914 7.80076 28.8742 1.99239C28.8876 0.987223 29.1878 0.784189 29.8997 0.136207Z" fill="#31EE97"/>
<path d="M38.4823 28.5714L43.0482 28.5645L43.0732 39.9597L62.7894 39.9479C65.5601 39.9416 73.6336 39.5517 75.5904 40.6814C76.3312 41.776 76.0041 51.0092 75.9925 52.9567C74.5456 52.896 72.8524 52.9351 71.3882 52.9334L71.4074 44.6203C62.0467 44.5042 52.4416 44.6154 43.0616 44.6151L43.0482 52.9361L38.4823 52.9282L38.4842 44.6395C29.5487 44.4189 19.1816 44.5304 10.2057 44.673L10.1942 52.9166C8.6934 52.906 7.11562 52.9514 5.60713 52.9701C5.60136 50.6434 5.28197 42.4486 5.98042 40.7782C7.47544 39.5242 15.7337 39.961 18.1253 39.9602L38.4784 39.9477L38.4823 28.5714Z" fill="#666D7A"/>
<path d="M7.17732 57.157C11.5335 56.7374 15.4067 59.9225 15.8396 64.2779C16.2706 68.6334 13.0958 72.5163 8.74161 72.9593C4.37199 73.4039 0.471844 70.2144 0.0389225 65.8425C-0.392075 61.4706 2.80577 57.5781 7.17732 57.157Z" fill="#31EE97"/>
<path d="M73.172 57.1616C77.5397 56.828 81.3475 60.1024 81.6746 64.4707C81.9998 68.8389 78.7192 72.6431 74.3515 72.9622C69.9953 73.2809 66.201 70.0094 65.8758 65.6511C65.5507 61.2929 68.8159 57.4943 73.172 57.1616Z" fill="#31EE97"/>
<path d="M40.0528 57.1964C44.4166 56.78 48.286 59.9974 48.6728 64.3648C49.0595 68.7323 45.8155 72.5794 41.4478 72.9366C37.1205 73.2901 33.3185 70.0843 32.9356 65.7586C32.5527 61.4329 35.7313 57.6089 40.0528 57.1964Z" fill="#31EE97"/>
</svg>
